<svg height="2348" viewBox="0 0 1534 2348" width="1534" xmlns="http://www.w3.org/2000/svg">
    <g fill="none" fill-rule="evenodd" transform="translate(6.923 7.9323)">
        <path name="tail" d="m505.971081 1829.9449c-31.907899 46.27606-68.035446 61.17351-108.382642 44.69237-60.520794-24.72173-17.413732 25.46736 10.22182 33.69027 27.635552 8.2229 67.511503 11.59577 116.787549-49.22274 25.845713-31.89983 22.69771-36.17591 8.541298-40.61366-9.437608-2.9585-18.493617.85942-27.168025 11.45376z"
        fill="#bb5b25" stroke="#000" stroke-width="12" />
        <path name="neck" d="m611.177552 1497.45304 127.006133 108.2749 171.333775-108.2749z" fill="#ca7242" />
        <g stroke="#000">
            <path name="face" d="m403.064722 471.388606c10.554444 127.669348 12.927163 217.472612 7.118156 269.409791 0 0-190.737969-152.98683-302.494639-88.361846-111.75667113 64.624985-130.8419981 240.207561-83.3659518 324.611635 31.6506975 56.269384 132.4114408 77.797074 302.2822308 64.583074-109.506286 62.97237-166.466109 137.78452-170.879469 224.43646-6.620038 129.97791 103.162978 218.64045 389.039018 241.4848 190.584027 15.22957 346.109001 15.22957 466.574923 0 232.82091-33.81432 345.00509-114.30925 336.55256-241.4848s-63.47188-201.9877-165.05806-224.43646c159.5654 22.78518 263.02057-16.39766 310.36551-117.548513 71.01741-151.726279-1.05475-273.110662-162.54066-306.594938s-242.98049 133.66103-242.98049 142.454417c0 0-10.40158-224.506298 10.42989-309.430862s-611.076375-110.202717-697.70012-17.32546c0 0 .885701 12.734234 2.657102 38.202702z"
            fill="#feddbe" stroke-width="12" />
            <path d="m838.747926 985.31842c45.765457-1.005928 90.871764-1.537818 129.404629 1.698795 89.600355 7.526087 169.384805 27.198945 233.176275 58.506995 49.72898 24.40636 89.69401 55.86438 116.76949 94.21809 25.48672 36.10317 39.47869 78.30482 39.47869 126.32542 0 45.24258-12.24906 82.52545-34.87836 113.12518-24.48297 33.1063-60.98264 58.36275-106.75099 77.67714-110.9915 46.83878-275.872475 58.69768-459.870649 58.69768-183.950378 0-345.540957-10.64586-453.944314-57.05241-44.617768-19.10048-80.11321-44.26368-104.045517-77.52232-22.241409-30.90881-34.399744-68.77676-34.849557-114.99825-.467916-48.08182 11.342712-88.58445 33.767607-122.44468 23.882046-36.06044 59.716226-64.55186 105.149386-86.84136 104.305728-51.17235 258.660869-69.665166 437.61186-69.665166 24.270963 0 49.653884-.575594 75.147314-1.174928l9.539425-.22419 2.383418-.055588 4.768332-.11002c.794173-.01816 1.588241-.036224 2.379909-.054126z"
            stroke-width="15" />
            <path name="hat" d="m373.737709 327.899027c27.975461-133.685946 54.44587-215.711348 79.411229-246.0762053 37.448038-45.5472862 171.476425-62.8327364 291.68426-62.8327364 0-4.5177868 6.180122-18.9900853 40.733897-18.9900853 23.03585 0 32.90553 6.33002844 29.609041 18.9900853 122.496646 8.5982065 206.627234 22.3502002 252.391764 41.2559812 68.64679 28.3586715 87.84476 64.7567235 107.52603 267.6529605 0 3.700484-267.118744 3.700484-801.356221 0z"
            fill="#fe5b00" stroke-width="15" />
            <path name="hat2" d="m400.40762 467.615305c-164.54612 21.744284-246.819181 5.990742-246.819181-47.260626 0-79.877052 353.598373-135.833509 578.938009-135.833509s612.788552 41.237105 628.174502 135.833509c10.25731 63.064269-77.26356 78.817811-262.5626 47.260626l6.52883-34.429401c-212.71194-58.69344-447.465128-58.69344-704.25956 0z"
            fill="#ff5e00" stroke-width="15" />
        </g>
        <g transform="translate(182.1085 18.4119)">
            <g fill="#fff">
                <g transform="translate(0 270.071)">
                    <g fill-opacity=".35">
                        <path d="m0 101.719934c7.57756626 29.892905 30.8984944 49.995777 69.9627843 60.308617 0 0-60.27022828-25.372796-55.5738126-69.590718 0 0-4.79632393 3.0940335-14.3889717 9.282101z" />
                        <path d="m69.9627843 67.2403305c-1.3236942 11.5634865-1.3236942 18.3349684 0 20.3144456s4.8690861.6798481 10.6361756-3.8988871v-20.2849842z" />
                        <path d="m144.188563 46.2164928-1.164685 19.1754522 9.822704-2.0210402v-18.7674528z" />
                        <path d="m145.470484 72.0166953c18.065259 33.5427567 41.932073 54.6294977 71.600443 63.2602227 0 0-56.848246-33.285717-64.224345-65.6705645 0 0-2.458699.8034473-7.376098 2.4103418z" />
                    </g>
                    <path d="m527.42147 0 4.425444 92.8980356h22.929094l-3.798882-92.8980356z" fill-opacity=".25" />
                    <path d="m1086.75367 74.3089687c-3.39151 29.1556103-16.40506 53.1496463-39.04063 71.9821083 0 0 43.66431-15.25448 46.72693-68.4119782 0 0-2.5621-1.1900433-7.6863-3.5701301z" fill-opacity=".35" />
                    <path d="m252.330765 76.5032785 6.424206 10.3659136c266.340934-51.4675557 550.649412-33.0332584 852.925429 55.3028919 0-2.461335 1.21185-5.880206 3.63553-10.256614-301.945085-96.0028866-580.365192-116.7725923-835.260322-62.3091165-14.200425 3.1350768-23.442039 5.4340518-27.724843 6.896925z"
                    fill-opacity=".15" />
                </g>
                <path d="m904.620362 299.487165c8.973679 36.038244-5.376899 66.962608-43.051735 92.773091 0 0 2.01933.467014 6.057988 1.40104 39.233038-19.489667 56.541515-49.529202 51.92543-90.118605 0 0-4.977228-1.351842-14.931683-4.055526z" fill-opacity=".35" />
                <path d="m977.652603 316.105575c2.185337 27.829085-6.347478 53.680992-25.598444 77.555721 0 0 38.361318-14.654615 40.269175-74.700255 0 0-4.890243-.951822-14.670731-2.855466z" fill-opacity=".35" />
            </g>
            <path d="m81.8483478 365.508785c20.4722602 30.922473 47.1042392 50.251544 79.8959402 57.987214" stroke="#fff" stroke-opacity=".3" stroke-width="3" />
            <path d="m250.973818 298.500229c-7.364565 41.746727 14.615906 71.093583 65.941414 88.040568 0 0-51.625526-47.68008-40.477104-91.02336 0 0-8.488103.994264-25.46431 2.982792z" fill="#fff" fill-opacity=".35" />
            <path d="m333.12744 287.059963c-1.478286 43.409378 12.033078 73.863469 40.534091 91.362273h3.545491c-26.381169-31.395216-37.159324-62.515926-32.334466-93.36213 0 0-3.915038.666619-11.745116 1.999857z" fill="#fff" fill-opacity=".35" />
            <path d="m400.855698 279.827558c1.178151 53.085561 14.150788 83.580128 38.917913 91.4837 0 0 2.552691-.334968 7.658073-1.004904-23.263297-33.339312-32.271456-64.181612-27.024477-92.5269 0 0-6.517169.682701-19.551509 2.048104z" fill="#fff" fill-opacity=".35"
            />
            <path d="m726.187322 284.251977c3.221768 33.145283-3.446134 61.001366-20.003703 83.568249" stroke="#fff" stroke-linecap="round" stroke-opacity=".35" stroke-width="10" />
            <path d="m787.72881 285.65554c1.242547 22.457274-.408664 38.603188-4.953632 48.43774-6.817453 14.751829 11.812452 4.629326 11.812452-48.43774 0 0-2.286273 0-6.85882 0z" fill="#fff" fill-opacity=".35" />
            <path d="m930.656584 307.650304c2.919181 40.464284-13.777426 70.644517-50.089822 90.540699 0 0 2.282199.576345 6.846598 1.729034 39.389886-20.148121 56.444561-50.361717 51.164026-90.640788 0 0-2.640267-.542982-7.920802-1.628945z" fill="#fff" fill-opacity=".35"
            />
            <path d="m1024.62225 329.10717c2.28492 34.47719-15.09933 65.155949-52.152768 92.036276 0 0 1.573088.599894 4.719265 1.799682 42.018703-29.831533 60.428963-60.499059 55.230783-92.002579 0 0-2.59909-.611127-7.79728-1.833379z" fill="#fff" fill-opacity=".35"
            />
            <path d="m994.223184 300.487165c2.390279 21.423052.291344 38.188763-6.296804 50.297132" stroke="#000" stroke-linecap="round" stroke-linejoin="bevel" stroke-opacity=".540095" stroke-width="5" />
            <path d="m552.342907 0c-71.471663 2.81256418-112.712155 80.5664047-123.721475 233.261522" stroke="#000" stroke-width="5" />
            <path d="m37.1924853 448.269153c352.2549957-123.420615 718.1822137-123.420615 1097.7816547 0" stroke="#000" stroke-width="5" />
            <path d="m218.299109 449.203443c-97.957186 8.572683-158.3260607 10.560139-181.1066237 5.962367-34.17084444-6.896657 546.2743297-221.314764 1111.3573447 0-8.88819 0-35.94713 4.689054-81.17683 14.06716l-151.343161-20.029527 2.593666-36.516724c-240.45745-55.753517-473.898915-55.035675-700.324396 2.153526z"
            fill="#5a0000" fill-opacity=".433893" />
            <path d="m86.9424197 446.05515c57.0306093-20.327593 110.7336733-35.358058 161.1091923-45.091394 50.375519-9.733337 50.375519-6.440031 0 9.879917z" fill="#000" />
            <path d="m927.121474 408.242018 135.989646 37.037555c-51.06879-11.797724-96.398675-20.063941-135.989646-24.798652-39.59097-4.73471-39.59097-8.814345 0-12.238903z" fill="#000" />
        </g>
        <g transform="translate(153.5884 284.5212)">
            <path d="m50.6478217 90.7014601c-8.9019077 38.5659349 19.465361 66.2217029 85.1018063 82.9673039 0 0-3.176366 0-9.529098 0-58.2668027-7.940902-86.2328941-33.478352-83.8982741-76.6123493 0-4.2366364 2.7751886-6.3549546 8.3255658-6.3549546z" fill="#000"
            fill-opacity=".552016" />
            <path d="m76.2823459 79.7779306c-5.0311565 21.3053954 8.8959416 44.2897304 41.7812941 68.9530054" stroke="#000" stroke-opacity=".502304" stroke-width="2" />
            <path d="m299.742577 26.7998041c-2.014616 35.669897 12.68888 67.5050663 44.110487 95.5055079 6.732922 2.725882 7.611579 2.725882 2.635974 0-32.2152-30.9616289-46.75263-61.9000287-43.61229-92.8151994 2.135045-3.901238 1.090321-4.7980075-3.134171-2.6903085z"
            fill="#000" fill-opacity=".503366" />
            <path d="m369.293976 18.6376076c-1.179117 23.437382-.506626 37.6994566 2.017474 42.7862239" stroke="#000" stroke-opacity=".534344" />
            <path d="m446.188241 9.89865439c-3.216811 40.49378121 5.59198 72.49582251 26.426374 96.00612361" stroke="#000" stroke-opacity=".242095" stroke-width="2" />
            <path d="m579.335113 4.39707064c4.51064 65.23686126 6.014187 99.07276436 4.51064 101.50770736-1.503546 2.434944.966215 2.434944 7.409284 0-1.565813-62.2663905-3.552467-96.10229302-5.959962-101.50770736-2.407495-5.40541433-4.394149-5.40541433-5.959962 0z"
            fill="#000" fill-opacity=".63064" />
            <path d="m807.773502 76.3294229c-11.57604 22.0445169-20.405465 35.6950011-26.488274 40.9514511" stroke="#000" stroke-opacity=".476038" stroke-width="2" />
            <path d="m1003.69374 49.311352c3.46348 42.6498722-12.997506 75.071892-49.382954 97.266058" stroke="#000" stroke-opacity=".355467" stroke-width="3" />
            <path d="m1156.68507 93.2994879c-1.7311 41.8918361-28.08652 70.4319721-79.06626 85.6204071-1.2428 1.266487.82087 2.066076 6.19099 2.398767 43.157-7.764751 69.7996-34.971273 79.92782-81.6195666 0-4.266405-2.35085-6.3996075-7.05255-6.3996075z" fill="#000"
            fill-opacity=".795199" />
            <g stroke="#000">
                <path d="m2.14953919 158.277813c194.02950681-76.8320668 388.73341681-115.9814356 584.11172981-117.4481061 195.378314-1.4666705 401.589045 34.6731028 618.632191 108.4193201" stroke-width="10" />
                <path d="m246.819181 183.094135c-164.5461207 21.744284-246.819181 5.990742-246.819181-47.260626 0-79.8770518 353.598373-135.833509 578.938008-135.833509 225.339636 0 612.788552 41.2371052 628.174502 135.833509 10.25731 63.064269-77.26356 78.817811-262.562599 47.260626l6.528834-34.429401c-212.711944-58.6934394-447.465132-58.6934394-704.259564 0z"
                stroke-width="15" />
            </g>
        </g>
        <g transform="translate(384.5301 18.0063)">
            <path d="m0 275.263024c250.998445-75.681878 514.194824-75.681878 789.589136 0" stroke="#000" stroke-width="15" />
            <g transform="translate(88.5502)">
                <g stroke="#000">
                    <path d="m276.165832 0c24.134419 9.29174283 47.724489 10.2209171 70.77021 2.78752285" stroke-linecap="round" stroke-width="15" />
                    <path d="m296.63611 6.40552782c-28.099109 27.90597748-43.950019 98.60467318-47.55273 212.09608718" stroke-linecap="round" stroke-width="10" />
                    <path d="m581.527466 38.4892756c36.909491 33.6189309 58.312325 106.9183784 64.208503 219.8983444" stroke-width="5" />
                    <path d="m120.312763 14.8023961c-33.0617455 10.5781141-58.8128007 87.9380889-77.2531656 232.0799239" stroke-width="5" />
                    <path d="m61.0501768 26.6053944c-19.7451659 10.5138566-40.0952248 83.9394986-61.0501768 220.2769256" stroke-width="3" />
                </g>
                <path d="m456.587661 12.6687574c39.677363 12.4821493 64.915917 39.7208541 75.715661 81.7161145 0 0 9.221704-33.8062799-50.213606-78.4457115-19.609912-6.35575504-28.110597-7.44588938-25.502055-3.270403z" fill="#000" />
            </g>
        </g>
        <g transform="translate(455.374 25.7495)">
            <path d="m57.9385754 36.4705884c-27.4047369 32.9297467-46.7175953 102.3468446-57.9385754 208.2512926" stroke="#620000" stroke-opacity=".519872" stroke-width="2" />
            <path d="m269.909838 0c-32.011442 11.8277702-59.141376 83.3805778-81.3898 214.658423h43.557362c12.527687-110.88471 34.528196-181.6233982 66.001527-212.21606543 0-1.62254109-9.389696-2.43666029-28.169089-2.44235757z" fill="#600000" fill-opacity=".352373"
            />
            <path d="m502.127766 14.9062031c44.092686 15.6049067 66.139029 86.9162719 66.139029 213.9340969 0 0 11.120337 1.694544 33.361012 5.08363 2.075103-118.74622-20.487756-189.8407467-67.688579-213.2835801-10.516357-2.2275576-21.120177-4.1389399-31.811462-5.7341468z"
            fill="#650000" fill-opacity=".532989" />
        </g>
        <g transform="translate(407.0186 27.1118)">
            <path d="m23.0762123 120.088382c230.5794957-67.6467748 466.3164167-68.8248813 707.2107627-3.534319 0 0-1.650683-4.581859-4.952049-13.745578-226.109947-79.3937789-458.355024-79.3937789-696.7352331 0-4.663677 7.988568-6.5048372 13.748534-5.5234806 17.279897z"
            fill="#fff" fill-opacity=".344034" />
            <path d="m0 221.271583c214.426562-95.58262 460.991102-101.529698 739.693621-17.841234" stroke="#fff" stroke-linecap="round" stroke-opacity=".4" stroke-width="18" />
            <path d="m27.420646 105.808485-19.862265 142.647476" stroke="#fff" stroke-opacity=".389348" stroke-width="3" />
            <g fill="#fff">
                <path d="m113.581242 25.367999c-31.6797015 34.6985485-52.7175411 105.882195-63.1135187 213.55094 0 0 5.1979888-1.205503 15.5939663-3.616509 17.5790647-116.585767 34.6787674-187.1203791 51.2991094-211.6038354 0 0-1.259852.5564681-3.779557 1.6694044z"
                fill-opacity=".383631" />
                <path d="m182.692842 10.2201105c-30.26198 16.592113-53.29918 88.2301406-69.1116 214.9140825 0 0 7.90621-1.287536 23.71863-3.86261 24.767304-115.343888 56.33824-187.8039097 94.712807-217.38006484 0 0-16.439946 2.10953078-49.319837 6.32859234z" fill-opacity=".322726"
                />
                <path d="m291.654871 0c-35.186272 19.6437439-61.767685 89.507855-79.744238 209.592333 0 0 8.321598-.630817 24.964793-1.892451 22.788288-118.9574686 46.130555-186.2691552 70.026801-201.9350599 3.522282-2.9764812 6.269896-4.89808857 8.242843-5.7648221z"
                fill-opacity=".35" />
                <path d="m347.122909 1.3001003c-30.126125 21.637519-51.993211 89.5006586-65.601256 203.5894187 2.247986 0 11.944761-.854157 29.090326-2.562473 3.02206-102.228839 17.059658-169.2378205 42.112793-201.0269457 0 0-1.867287 0-5.601863 0z" fill-opacity=".35"
                />
            </g>
            <path d="m416.500287 1.3001003c37.002562 14.9566887 58.11401 82.8198283 63.334345 203.5894187" stroke="#fff" stroke-linecap="round" stroke-opacity=".433367" stroke-width="5" />
            <path d="m524.906318 10.7456991c40.673091 5.0213303 67.7106 75.1966249 81.112528 210.5258839 1.919945 2.514494 5.47578 3.465893 10.667504 2.854197 0-118.404398-23.788621-188.5983599-71.365863-210.5818853 0 0-6.804723-.9327319-20.414169-2.7981956z" fill="#fff"
            fill-opacity=".35" />
            <path d="m582.294616 19.2780414c46.54579 22.6578191 69.152343 92.8763476 67.819659 210.6555846 0 1.071897 3.745582 1.947895 11.236744 2.627996-2.073575-117.22453-21.318458-186.7484335-57.734647-208.5717114 0 0-7.107252-1.5706231-21.321756-4.7118692z"
            fill="#fff" fill-opacity=".35" />
        </g>
        <path d="m415.782828 15c34.268209 0 65.27821 14.191007 87.73037 37.0919654 22.558547 23.0094726 36.486802 54.8034716 36.486802 89.9080346s-13.928255 66.898562-36.486802 89.908035c-22.45216 22.900958-53.462161 37.091965-87.73037 37.091965-31.63931 0-60.503766-12.096162-82.415886-31.978686-22.255725-20.194303-37.353722-48.408743-40.964694-80.190829l-29.808312.000776c-3.609244 31.781637-18.706143 59.995688-40.961053 80.189796-21.911718 19.882695-50.776282 31.978943-82.415711 31.978943-34.268209 0-65.2782104-14.191007-87.7303699-37.091965-22.5585472-23.009473-36.4868021-54.803472-36.4868021-89.908035s13.9282549-66.898562 36.4868021-89.9080346c22.4521595-22.9009584 53.4621609-37.0919654 87.7303699-37.0919654 31.63931 0 60.503766 12.0961619 82.415886 31.9786856 22.255725 20.194303 37.353722 48.4087438 40.964694 80.1908294l29.808312-.000776c3.609244-31.7816369 18.706143-59.9956885 40.961053-80.1897962 21.911718-19.8826951 50.776282-31.9789428 82.415711-31.9789428z"
        fill="#fff" stroke="#000" stroke-width="30" transform="translate(479.077 712.0677)" />
        <g fill="#000" transform="translate(561.077 803.0677)">
            <path d="m49.4341296 130c21.7484651 0 54.4951644-29.101491 54.4951644-65 0-35.8985087-32.7466993-65-54.4951644-65-21.7484652 0-49.4341296 29.1014913-49.4341296 65 0 35.898509 27.6856644 65 49.4341296 65z" />
            <ellipse cx="341.946315" cy="65" rx="49.053686" ry="65" />
        </g>
        <path name="hair" d="m422.551077 434.80995c367.769868-92.129718 679.613853 11.395101 679.613853 11.395101-22.45356 81.258285-26.05477 199.100574-10.80363 353.526865 4.28564 109.289265 40.12449 188.015977 107.51656 236.180134 67.39208 48.16416 108.16419 87.27974 122.31635 117.34673-78.20796-108.12737-257.21429-162.191057-537.01897-162.191057-419.707025 0-584.738264 143.830987-584.738264 143.830987 36.921632-43.28783 30.956822-37.62574 118.857744-113.21837 76.048643-81.351822 81.232517-141.881154 81.232517-141.881154 23.001573-172.395151 23.001573-316.926529 0-433.594135 14.667039-7.259102 22.326493-11.049966 22.978361-11.372593l.034109-.016881c.00758-.003752.01137-.005627.01137-.005627zm209.622062 40.31501c-122.128649-20.764858-187.35467 60.981719-187.35467 133.200438 0 240.477779-38.650575 385.987013-115.951724 436.527702 7.994915-2.31589 11.992372-3.47384 11.992372-3.47384 130.404851-45.437291 312.326193-76.56113 438.465568-73.383007 221.723585 5.586398 373.718465 53.966487 382.638605 56.864257l.36864.12047.04627.01527c-114.96836-108.302518-105.61617-217.398612-114.00423-416.670852 0-113.531363-131.642022-145.765596-208.112836-124.92419-58.035614 15.817065-90.867671 52.705471-90.867671 52.705471-48.289148-29.019542-80.917348-54.809325-117.220324-60.981719z"
        fill="#ca7240" stroke="#000" stroke-width="12" />
        <path d="m691.69577 985.669352c19.204736-22.651175 146.766499-24.459745 169.075348 0 22.308848 24.459748-38.528155 96.326898-81.219071 96.326898s-107.061012-73.67572-87.856277-96.326898z" fill="#000" />
        <path d="m407.376272 1161.49433c231.1212 117.82022 466.601206 117.82022 706.440018 0" stroke="#000" stroke-linecap="round" stroke-width="20" />
        <g stroke="#000" stroke-linecap="round" transform="translate(1137.1519 774.6288)">
            <path d="m0 138.864928c67.2142278-120.2840245 155.908756-162.4260366 266.083585-126.4260366" stroke-width="35" />
            <path d="m0 138.864928c83.0779507-89.1736301 143.376289-84.9823089 180.895016 12.573963" stroke-width="30" />
        </g>
        <g stroke="#000" stroke-linecap="round" transform="matrix(-1 0 0 1 375.2355 788.6288)">
            <path d="m0 138.864928c67.2142278-120.2840245 155.908756-162.4260366 266.083585-126.4260366" stroke-width="35" />
            <path d="m0 138.864928c83.0779507-89.1736301 143.376289-84.9823089 180.895016 12.573963" stroke-width="30" />
        </g>
        <path name="clothes" d="m652.231092 1522.00131 91.797426 59.9086 85.131307-54.94293 213.001265-22.31779c-3.07084 13.67149-11.50108 23.52775-25.29072 29.5688 0 0 189.52314 116.24154 178.59968 136.41815v29.84742l-67.25868 90.05392v18.88139c-75.40868-2.32268-123.25565-38.63445-143.540884-108.93531 0 0 3.641383 46.76545 37.319614 83.7989 0 6.25502 16.54232 33.96353-37.319614 58.88921 0 0 6.763406 29.83898-10.218417 37.33696s-280.124816 80.97037-430.853215 31.14049c0 0-6.425879.57244-6.425879-31.14049 0 0-54.706466-7.14051-27.353233-71.08976 27.353233-63.94924 40.204991-102.23544 33.779112-168.52241 0 0 3.225464 179.61064-96.132528 209.61141 0 0-95.808445-77.63841-122.34133-87.4634 0 0 6.751552-10.37028 20.254656-31.11084-7.398014-1.06843-4.353005-11.55178 9.135027-31.45007 13.488033-19.89828 56.936287-85.1764 130.344764-195.83437z"
        fill="#fff" stroke="#000" stroke-width="15" />
        <g transform="translate(336.647 1504.5572)">
            <g fill="#000">
                <path d="m251.274823 11.111214c14.747491 10.4505978 25.360466 15.6758968 31.838926 15.6758968 0 0-8.352849-9.8325381-5.673434-15.6758968 1.786277-3.89557249-6.935554-3.89557249-26.165492 0z" />
                <path d="m144.225931 2.16106964c23.906726 17.19859626 69.5285 34.30563566 136.865324 51.32111816 0 0 4.94809-11.3639777 9.413399-11.3639777 2.976872 0 2.976872 4.5327441 0 13.5982323-13.183877 43.4935763-20.364907 74.0522736-21.543092 91.6760926 0 5.135953 10.107199 7.013006 12.129693 3.506503 1.348329-2.337668 9.546066-36.763173 24.59321-103.2765143 4.965759-1.7864745 8.046453 2.7343674 9.242083 13.5625257 9.026003 3.1253606 28.246124 9.6824708 57.660363 19.6713306 3.551134 2.2933507 1.180039 3.440026-7.113285 3.440026s-26.520919-4.3165698-54.682786-12.9497093l-17.711276 82.4924753c-4.896814 9.80053-12.179651 13.412047-21.848511 10.83455-14.503291-3.866246-12.026122-14.769176-12.026122-27.369224 0-8.400033 5.995376-32.709048 17.986128-72.9270466-76.328479-21.1507513-122.010496-37.5345774-137.046052-49.1514785-15.035557-11.61690096-13.675248-15.97186873 4.080924-13.06490326z"
                />
                <path d="m423.798483 81.4019354 72.817082-19.5782466v-11.2831516c6.728705-3.6376359 10.093058-1.361361 10.093058 6.8288246s1.942825 36.6881308 5.828476 85.4938352c7.054324 9.694157 12.296086 9.032104 15.725283-1.986159 3.429198-11.018264.818408-42.7874115-7.83237-95.3074435.981332-4.2081393 3.592122-2.5511583 7.83237 4.9709427 1.483598 4.5525497 3.704252 6.0651425 6.661964 4.5377783 98.741664-23.897445 149.404753-39.8375154 151.989264-47.82021099 2.584512-7.98269563 8.322316-9.38067316 17.213413-4.19393259 5.084 18.87501328-51.316893 39.93878508-169.202677 63.19131548 0 0 17.824253 88.3239706-10.242264 93.7736396-18.711011 3.633113-26.800813-12.513098-24.269404-48.438633l-3.797113-39.0414459c-40.833426 9.3021698-65.105787 12.9136736-72.817082 10.8345111-.798686-.5607015-.798686-1.2212427 0-1.9816238z"
                />
            </g>
            <path d="m0 220.460235c77.9894758 42.54807 116.984214 72.699721 116.984214 90.454952s-5.996465 28.322124-17.9893954 31.700679" stroke="#000" stroke-width="15" />
            <path d="m236.751867 325.21065c42.236756-35.410034 68.287926-72.846702 78.15351-112.310003 0 0 64.379688-2.190743 193.139065-6.572231 10.497553 42.61597 34.224635 75.749719 71.181246 99.401248 1.759085 3.272085.465997 33.69296-3.889479 41.983239-2.903651 5.526853.164076 5.014537 9.20318-1.53695l4.646294-42.324775c-47.055928-37.283409-71.235815-73.396374-72.539661-108.338896 0 1.036534-69.536216 3.646785-208.608648 7.830751-10.131511 35.967013-34.518759 75.063162-73.161745 117.288446-.719055 3.052781-.093642 4.579171 1.876238 4.579171z"
            fill="#000" />
            <path d="m180.913779 360.483036c111.62076 40.793905 268.472852 30.111077 470.556277-32.048483" stroke="#000" stroke-linecap="round" stroke-width="15" />
            <path d="m788.251445 299.429144c-23.714481-15.150093-27.575288-33.010626-11.582421-53.581597 23.9893-30.856456 58.282105-67.519568 82.963113-79.082181" stroke="#000" stroke-width="15" />
        </g>
        <g fill="#000" stroke="#000" stroke-width="15" transform="translate(196.5357 1688.3771)">
            <path name="hand" d="m123.01109 81.6822413c-124.3185432 81.4564967-154.4071667 148.0287797-90.2658704 199.7168487 64.1412963 51.68807 111.1176404 35.922911 140.9290334-47.295476v27.910856c0 23.966142 84.169562-5.068783 66.918913-96.868747-4.339836-23.094601-39.71616-36.192216-57.832869-50.208998-13.045299-10.093066-32.961702-21.1778938-59.749207-33.2544837z"
            />
            <path name="hand2" d="m921.680563 112.215592c-1.407305 78.331276 16.225649 117.496914 52.898862 117.496914 38.035155 0 52.720845-17.916165 44.057065-53.748496 64.28579 42.498946 110.94477 42.498946 139.97696 0 43.54827-63.748418-16.14071-180.85574512-159.545006-175.80585542-10.674809 23.18529042-36.470769 60.53776962-77.387881 112.05743742z"
            />
        </g>
        <path name="pants" d="m548.165639 1921.21269c-21.658572 71.67401-14.44153 137.35378 21.651127 197.0393 4.134418 0 8.362909 1.53691 12.685474 4.61072l6.101496 34.26731 117.750889-15.88859 4.667724-34.38016c20.231226 1.8465 20.231226-23.05066 0-74.69146-10.548159-27.37637-2.043612-56.70096 25.51364-87.97377 37.856994 28.42492 67.697904 44.19757 89.522731 47.31796 0 0 11.361999 113.52959 50.893312 126.73799 39.531313 13.20841 132.953338-24.97417 132.953338-47.22433 0-14.83344-10.142114-41.33799-30.426351-79.51366-10.633508-33.8069-15.950262-69.75584-15.950262-107.8468 0 0-225.430859 66.76894-393.711991 37.54549 0 0-7.217042 0-21.651127 0z"
        fill="#feddbe" stroke="#000" stroke-width="15" />
        <g transform="translate(471.1387 2086.5473)">
            <path name="shoes" d="m117.464998 70.5826877c-12.050026 5.8757456-18.0750396 21.5056055-18.0750396 46.8895793 0 0-112.4259018-9.172547-98.13435411 103.771948 10.42833221 16.674459 202.36512571 49.996246 287.06665571-11.103581 13.482512-36.384849 18.228858-122.6554581-53.106373-155.4465304-47.963294 5.7516991-87.213591 11.0478938-117.750889 15.8885841z"
            fill="#000" stroke="#000" stroke-width="15" />
            <ellipse cx="142.938273" cy="110.520395" fill="#bdbfbe" rx="23" ry="20" />
            <path name="shoes2" d="m396.786217 32.5355871c4.457233 40.1001537-1.158749 69.7118979-16.847944 88.8352319-23.533794 28.685001-34.181692 93.447388 54.142286 93.447388s168.199789-26.367445 168.199789-75.133614c0-48.7661696-16.340423-62.096214-39.166687-77.1652177-15.21751-10.0460025-23.333185-30.8857943-24.347025-62.5193753-47.901599 25.1154613-90.247447 35.960657-127.037542 32.5355871-11.816042-2.7533306-16.797001-2.7533306-14.942877 0z"
            fill="#000" stroke="#000" stroke-width="15" />
            <ellipse cx="466.938273" cy="72.520395" fill="#bdbfbe" rx="21" ry="18" />
        </g>
        <path d="m579.522466 2119.77489c71.586974-2.61119 118.996025-8.80191 142.227154-18.57217" stroke="#000" stroke-width="15" />
    </g>
</svg>