<svg width="800" height="600" xmlns="http://www.w3.org/2000/svg">
  <!-- 背景和标题 -->
  <rect width="800" height="600" fill="#f8f9fa" rx="10" ry="10"/>
  <text x="400" y="40" font-family="Arial, sans-serif" font-size="24" font-weight="bold" text-anchor="middle">Deepseek AI 前端项目架构</text>
  
  <!-- 前端模块 -->
  <rect x="50" y="80" width="300" height="120" fill="#e3f2fd" stroke="#2196f3" stroke-width="2" rx="5" ry="5"/>
  <text x="200" y="120" font-family="Arial, sans-serif" font-size="18" font-weight="bold" text-anchor="middle">前端应用</text>
  <text x="200" y="150" font-family="Arial, sans-serif" font-size="14" text-anchor="middle">HTML5 + CSS3 + JavaScript</text>
  <text x="200" y="170" font-family="Arial, sans-serif" font-size="14" text-anchor="middle">Vite 构建工具</text>
  
  <!-- 模式切换 -->
  <rect x="50" y="220" width="300" height="80" fill="#e8f5e9" stroke="#4caf50" stroke-width="2" rx="5" ry="5"/>
  <text x="200" y="255" font-family="Arial, sans-serif" font-size="16" font-weight="bold" text-anchor="middle">模式管理</text>
  <text x="200" y="275" font-family="Arial, sans-serif" font-size="14" text-anchor="middle">localStorage / URL参数 / 环境变量</text>
  
  <!-- 后端模块 -->
  <rect x="50" y="320" width="300" height="120" fill="#fff3e0" stroke="#ff9800" stroke-width="2" rx="5" ry="5"/>
  <text x="200" y="360" font-family="Arial, sans-serif" font-size="18" font-weight="bold" text-anchor="middle">Node.js 后端</text>
  <text x="200" y="385" font-family="Arial, sans-serif" font-size="14" text-anchor="middle">Express 服务器</text>
  <text x="200" y="410" font-family="Arial, sans-serif" font-size="14" text-anchor="middle">CORS + 文件系统</text>
  
  <!-- API服务 -->
  <rect x="500" y="150" width="250" height="90" fill="#f3e5f5" stroke="#9c27b0" stroke-width="2" rx="5" ry="5"/>
  <text x="625" y="180" font-family="Arial, sans-serif" font-size="16" font-weight="bold" text-anchor="middle">Mock API</text>
  <text x="625" y="205" font-family="Arial, sans-serif" font-size="14" text-anchor="middle">模拟Deepseek响应</text>
  
  <rect x="500" y="270" width="250" height="90" fill="#ffebee" stroke="#f44336" stroke-width="2" rx="5" ry="5"/>
  <text x="625" y="300" font-family="Arial, sans-serif" font-size="16" font-weight="bold" text-anchor="middle">真实Deepseek API</text>
  <text x="625" y="325" font-family="Arial, sans-serif" font-size="14" text-anchor="middle">实际AI模型调用</text>
  
  <!-- 存储 -->
  <rect x="500" y="390" width="250" height="90" fill="#e0f7fa" stroke="#00bcd4" stroke-width="2" rx="5" ry="5"/>
  <text x="625" y="420" font-family="Arial, sans-serif" font-size="16" font-weight="bold" text-anchor="middle">本地存储</text>
  <text x="625" y="445" font-family="Arial, sans-serif" font-size="14" text-anchor="middle">JSON文件保存对话历史</text>
  
  <!-- 连接线 -->
  <line x1="200" y1="200" x2="200" y2="220" stroke="#666" stroke-width="2"/>
  <line x1="200" y1="300" x2="200" y2="320" stroke="#666" stroke-width="2"/>
  <line x1="350" y1="140" x2="625" y2="150" stroke="#666" stroke-width="2" stroke-dasharray="5,5"/>
  <line x1="350" y1="140" x2="625" y2="270" stroke="#666" stroke-width="2"/>
  <line x1="350" y1="380" x2="625" y2="440" stroke="#666" stroke-width="2"/>
  
  <!-- 箭头 -->
  <defs>
    <marker id="arrowhead" markerWidth="10" markerHeight="7" refX="9" refY="3.5" orient="auto">
      <polygon points="0 0, 10 3.5, 0 7" fill="#666"/>
    </marker>
  </defs>
  <line x1="625" y1="240" x2="625" y2="270" stroke="#666" stroke-width="2" marker-end="url(#arrowhead)"/>
  <line x1="350" y1="380" x2="625" y2="390" stroke="#666" stroke-width="2" marker-end="url(#arrowhead)"/>
</svg>